ffmpeg version N-82167-g5e96558 Copyright (c) 2000-2016 the FFmpeg developers
  built with gcc 5.4.0 (Ubuntu 5.4.0-6ubuntu1~16.04.2) 20160609
  configuration: --prefix=/root/ffmpeg_build --pkg-config-flags=--static --extra-cflags=-I/root/ffmpeg_build/include --extra-ldflags=-L/root/ffmpeg_build/lib --bindir=/root/bin --enable-gpl --enable-libass --enable-libfdk-aac --enable-libfreetype --enable-libmp3lame --enable-libopus --enable-libtheora --enable-libvorbis --enable-libx264 --enable-libx265 --enable-nonfree
  libavutil      55. 35.100 / 55. 35.100
  libavcodec     57. 65.100 / 57. 65.100
  libavformat    57. 57.100 / 57. 57.100
  libavdevice    57.  2.100 / 57.  2.100
  libavfilter     6. 66.100 /  6. 66.100
  libswscale      4.  3.100 /  4.  3.100
  libswresample   2.  4.100 /  2.  4.100
  libpostproc    54.  2.100 / 54.  2.100
Input #0, matroska,webm, from '/media/yubikiri/bot/queue/3AnimePahe_Detective_Conan_-_034_720p_Fansub.mkv':
  Metadata:
    title           : 3|Text||0|0
    ENCODER         : Lavf57.57.100
  Duration: 00:24:26.88, start: 0.000000, bitrate: 964 kb/s
    Stream #0:0: Video: mpeg4 (Simple Profile), yuv420p, 640x480 [SAR 1:1 DAR 4:3], 23.98 fps, 23.98 tbr, 1k tbn, 23.98 tbc (default)
    Metadata:
      DURATION        : 00:24:26.884000000
    Stream #0:1: Audio: mp3, 48000 Hz, stereo, s16p, 128 kb/s (default)
    Metadata:
      DURATION        : 00:24:26.832000000
[libx264 @ 0x2db17e0] using SAR=1/1
[libx264 @ 0x2db17e0] using cpu capabilities: MMX2 SSE2Fast SSSE3 SSE4.2 AVX FMA3 AVX2 LZCNT BMI2
[libx264 @ 0x2db17e0] profile High, level 3.1
[libx264 @ 0x2db17e0] 264 - core 148 r2643 5c65704 - H.264/MPEG-4 AVC codec - Copyleft 2003-2015 - http://www.videolan.org/x264.html - options: cabac=1 ref=8 deblock=1:1:1 analyse=0x3:0x133 me=umh subme=7 psy=1 psy_rd=0.00:0.00 mixed_ref=1 me_range=8 chroma_me=1 trellis=0 8x8dct=1 cqm=0 deadzone=21,11 fast_pskip=1 chroma_qp_offset=0 threads=8 lookahead_threads=2 sliced_threads=0 nr=0 decimate=1 interlaced=0 bluray_compat=0 constrained_intra=0 bframes=3 b_pyramid=2 b_adapt=2 b_bias=0 direct=1 weightb=1 open_gop=0 weightp=2 keyint=240 keyint_min=24 scenecut=40 intra_refresh=0 rc_lookahead=60 rc=crf mbtree=1 crf=27.0 qcomp=0.60 qpmin=0 qpmax=69 qpstep=4 ip_ratio=1.40 aq=1:1.00
[libfdk_aac @ 0x2db2b60] Note, the VBR setting is unsupported and only works with some parameter combinations
Output #0, mp4, to '/media/yubikiri/bot/queue/3AnimePahe_Detective_Conan_-_034_720p_Fansub.mkv_encoded.mp4':
  Metadata:
    encoder         : Lavf57.57.100
    Stream #0:0: Video: h264 (libx264) ([33][0][0][0] / 0x0021), yuv420p, 640x480 [SAR 1:1 DAR 4:3], q=-1--1, 23.98 fps, 11988 tbn, 23.98 tbc (default)
    Metadata:
      encoder         : Lavc57.65.100 libx264
    Side data:
      cpb: bitrate max/min/avg: 0/0/0 buffer size: 0 vbv_delay: -1
    Stream #0:1: Audio: aac (libfdk_aac) (HE-AACv2) ([64][0][0][0] / 0x0040), 48000 Hz, stereo, s16, 48 kb/s (default)
    Metadata:
      encoder         : Lavc57.65.100 libfdk_aac
Stream mapping:
  Stream #0:0 -> #0:0 (mpeg4 (native) -> h264 (libx264))
  Stream #0:1 -> #0:1 (mp3 (native) -> aac (libfdk_aac))
Press [q] to stop, [?] for help
frame=  113 fps=0.0 q=32.0 size=     103kB time=00:00:04.88 bitrate= 173.3kbits/s dup=1 drop=0 speed=9.77x    frame=  173 fps=172 q=32.0 size=     269kB time=00:00:07.36 bitrate= 298.8kbits/s dup=1 drop=0 speed=7.33x    frame=  246 fps=163 q=32.0 size=     396kB time=00:00:10.43 bitrate= 311.2kbits/s dup=1 drop=0 speed=6.91x    frame=  320 fps=159 q=32.0 size=     564kB time=00:00:13.50 bitrate= 342.4kbits/s dup=1 drop=0 speed=6.71x    frame=  380 fps=151 q=32.0 size=     714kB time=00:00:16.02 bitrate= 365.1kbits/s dup=1 drop=0 speed=6.36x    frame=  445 fps=147 q=32.0 size=     870kB time=00:00:18.71 bitrate= 381.1kbits/s dup=1 drop=0 speed=6.18x    frame=  520 fps=147 q=32.0 size=    1041kB time=00:00:21.82 bitrate= 390.8kbits/s dup=1 drop=0 speed=6.17x    frame=  651 fps=161 q=32.0 size=    1226kB time=00:00:27.32 bitrate= 367.4kbits/s dup=1 drop=0 speed=6.77x    frame=  750 fps=165 q=32.0 size=    1388kB time=00:00:31.42 bitrate= 361.8kbits/s dup=1 drop=0 speed= 6.9x    frame=  852 fps=168 q=32.0 size=    1593kB time=00:00:35.69 bitrate= 365.7kbits/s dup=1 drop=0 speed=7.04x    frame=  950 fps=171 q=32.0 size=    1747kB time=00:00:39.78 bitrate= 359.6kbits/s dup=1 drop=0 speed=7.15x    frame= 1014 fps=167 q=32.0 size=    1882kB time=00:00:42.47 bitrate= 363.1kbits/s dup=1 drop=0 speed=   7x    frame= 1134 fps=173 q=32.0 size=    2058kB time=00:00:47.42 bitrate= 355.4kbits/s dup=1 drop=0 speed=7.22x    frame= 1246 fps=176 q=32.0 size=    2260kB time=00:00:52.11 bitrate= 355.2kbits/s dup=1 drop=0 speed=7.36x    frame= 1305 fps=172 q=32.0 size=    2434kB time=00:00:54.59 bitrate= 365.2kbits/s dup=1 drop=0 speed=7.18x    frame= 1365 fps=168 q=32.0 size=    2612kB time=00:00:57.11 bitrate= 374.6kbits/s dup=1 drop=0 speed=7.03x    frame= 1447 fps=168 q=32.0 size=    2749kB time=00:01:00.52 bitrate= 372.1kbits/s dup=1 drop=0 speed=7.02x    frame= 1523 fps=167 q=32.0 size=    2921kB time=00:01:03.68 bitrate= 375.8kbits/s dup=1 drop=0 speed=6.97x    frame= 1614 fps=167 q=32.0 size=    3089kB time=00:01:07.47 bitrate= 375.0kbits/s dup=1 drop=0 speed=   7x    frame= 1673 fps=165 q=32.0 size=    3276kB time=00:01:09.95 bitrate= 383.6kbits/s dup=1 drop=0 speed=6.88x    frame= 1757 fps=165 q=32.0 size=    3459kB time=00:01:13.45 bitrate= 385.7kbits/s dup=1 drop=0 speed=6.89x    frame= 1822 fps=163 q=32.0 size=    3610kB time=00:01:16.13 bitrate= 388.4kbits/s dup=1 drop=0 speed=6.82x    frame= 1892 fps=162 q=32.0 size=    3786kB time=00:01:19.08 bitrate= 392.2kbits/s dup=1 drop=0 speed=6.77x    frame= 1951 fps=160 q=32.0 size=    3916kB time=00:01:21.51 bitrate= 393.6kbits/s dup=1 drop=0 speed=6.68x    frame= 2016 fps=158 q=32.0 size=    4077kB time=00:01:24.24 bitrate= 396.5kbits/s dup=1 drop=0 speed=6.62x    frame= 2067 fps=156 q=32.0 size=    4177kB time=00:01:26.37 bitrate= 396.1kbits/s dup=1 drop=0 speed=6.52x    frame= 2119 fps=154 q=32.0 size=    4259kB time=00:01:28.55 bitrate= 394.0kbits/s dup=1 drop=0 speed=6.43x    frame= 2238 fps=157 q=32.0 size=    4415kB time=00:01:33.54 bitrate= 386.6kbits/s dup=1 drop=0 speed=6.55x    frame= 2383 fps=161 q=32.0 size=    4553kB time=00:01:39.56 bitrate= 374.6kbits/s dup=1 drop=0 speed=6.74x    frame= 2464 fps=161 q=32.0 size=    4679kB time=00:01:42.93 bitrate= 372.4kbits/s dup=1 drop=0 speed=6.73x    frame= 2555 fps=162 q=32.0 size=    4828kB time=00:01:46.73 bitrate= 370.5kbits/s dup=1 drop=0 speed=6.76x    frame= 2620 fps=161 q=32.0 size=    4991kB time=00:01:49.41 bitrate= 373.7kbits/s dup=1 drop=0 speed=6.72x    frame= 2680 fps=159 q=32.0 size=    5098kB time=00:01:51.93 bitrate= 373.1kbits/s dup=1 drop=0 speed=6.66x    frame= 2797 fps=161 q=32.0 size=    5238kB time=00:01:56.80 bitrate= 367.3kbits/s dup=1 drop=0 speed=6.74x    frame= 2896 fps=162 q=32.0 size=    5363kB time=00:02:00.93 bitrate= 363.3kbits/s dup=1 drop=0 speed=6.79x    frame= 2953 fps=161 q=32.0 size=    5428kB time=00:02:03.32 bitrate= 360.6kbits/s dup=1 drop=0 speed=6.73x    frame= 3083 fps=164 q=32.0 size=    5644kB time=00:02:08.74 bitrate= 359.1kbits/s dup=1 drop=0 speed=6.84x    frame= 3184 fps=165 q=32.0 size=    5744kB time=00:02:12.92 bitrate= 354.0kbits/s dup=1 drop=0 speed=6.88x    frame= 3276 fps=165 q=32.0 size=    5915kB time=00:02:16.81 bitrate= 354.2kbits/s dup=1 drop=0 speed= 6.9x    frame= 3393 fps=167 q=32.0 size=    6087kB time=00:02:21.67 bitrate= 352.0kbits/s dup=1 drop=0 speed=6.97x    frame= 3507 fps=168 q=32.0 size=    6161kB time=00:02:26.41 bitrate= 344.7kbits/s dup=1 drop=0 speed=7.01x    frame= 3577 fps=167 q=32.0 size=    6250kB time=00:02:29.35 bitrate= 342.8kbits/s dup=1 drop=0 speed=6.98x    frame= 3677 fps=168 q=32.0 size=    6352kB time=00:02:33.53 bitrate= 338.9kbits/s dup=1 drop=0 speed=7.01x    frame= 3768 fps=168 q=32.0 size=    6450kB time=00:02:37.33 bitrate= 335.8kbits/s dup=1 drop=0 speed=7.02x    frame= 3864 fps=169 q=32.0 size=    6525kB time=00:02:41.34 bitrate= 331.3kbits/s dup=1 drop=0 speed=7.04x    frame= 3949 fps=169 q=32.0 size=    6650kB time=00:02:44.88 bitrate= 330.4kbits/s dup=1 drop=0 speed=7.04x    frame= 4049 fps=169 q=32.0 size=    6726kB time=00:02:49.02 bitrate= 326.0kbits/s dup=1 drop=0 speed=7.07x    frame= 4132 fps=169 q=32.0 size=    6813kB time=00:02:52.48 bitrate= 323.6kbits/s dup=1 drop=0 speed=7.06x    frame= 4226 fps=170 q=32.0 size=    6895kB time=00:02:56.40 bitrate= 320.2kbits/s dup=1 drop=0 speed=7.08x    frame= 4329 fps=170 q=32.0 size=    6979kB time=00:03:00.71 bitrate= 316.4kbits/s dup=1 drop=0 speed=7.11x    frame= 4409 fps=170 q=32.0 size=    7074kB time=00:03:04.04 bitrate= 314.9kbits/s dup=1 drop=0 speed= 7.1x    frame= 4469 fps=169 q=32.0 size=    7141kB time=00:03:06.56 bitrate= 313.6kbits/s dup=1 drop=0 speed=7.06x    frame= 4531 fps=168 q=32.0 size=    7219kB time=00:03:09.16 bitrate= 312.6kbits/s dup=1 drop=0 speed=7.02x    frame= 4598 fps=167 q=32.0 size=    7315kB time=00:03:11.93 bitrate= 312.2kbits/s dup=1 drop=0 speed=6.99x    frame= 4696 fps=168 q=32.0 size=    7393kB time=00:03:16.03 bitrate= 309.0kbits/s dup=1 drop=0 speed=   7x    frame= 4752 fps=167 q=32.0 size=    7487kB time=00:03:18.37 bitrate= 309.2kbits/s dup=1 drop=0 speed=6.96x    frame= 4799 fps=165 q=32.0 size=    7556kB time=00:03:20.34 bitrate= 309.0kbits/s dup=1 drop=0 speed= 6.9x    frame= 4864 fps=165 q=32.0 size=    7632kB time=00:03:23.03 bitrate= 307.9kbits/s dup=1 drop=0 speed=6.88x    frame= 4961 fps=165 q=32.0 size=    7714kB time=00:03:27.08 bitrate= 305.1kbits/s dup=1 drop=0 speed= 6.9x    frame= 5044 fps=165 q=32.0 size=    7779kB time=00:03:30.53 bitrate= 302.7kbits/s dup=1 drop=0 speed= 6.9x    frame= 5107 fps=165 q=32.0 size=    7847kB time=00:03:33.18 bitrate= 301.5kbits/s dup=1 drop=0 speed=6.87x    frame= 5160 fps=163 q=32.0 size=    7900kB time=00:03:35.36 bitrate= 300.5kbits/s dup=1 drop=0 speed=6.82x    frame= 5198 fps=162 q=32.0 size=    7958kB time=00:03:36.93 bitrate= 300.5kbits/s dup=1 drop=0 speed=6.76x    frame= 5255 fps=161 q=32.0 size=    8027kB time=00:03:39.32 bitrate= 299.8kbits/s dup=1 drop=0 speed=6.73x    frame= 5317 fps=161 q=32.0 size=    8086kB time=00:03:41.93 bitrate= 298.5kbits/s dup=1 drop=0 speed= 6.7x    frame= 5378 fps=160 q=32.0 size=    8156kB time=00:03:44.49 bitrate= 297.6kbits/s dup=1 drop=0 speed=6.68x    frame= 5448 fps=160 q=32.0 size=    8209kB time=00:03:47.39 bitrate= 295.7kbits/s dup=1 drop=0 speed=6.67x    frame= 5499 fps=159 q=32.0 size=    8304kB time=00:03:49.52 bitrate= 296.4kbits/s dup=1 drop=0 speed=6.63x    frame= 5551 fps=158 q=32.0 size=    8398kB time=00:03:51.65 bitrate= 297.0kbits/s dup=1 drop=0 speed= 6.6x    frame= 5597 fps=157 q=32.0 size=    8460kB time=00:03:53.57 bitrate= 296.7kbits/s dup=1 drop=0 speed=6.56x    frame= 5635 fps=156 q=32.0 size=    8531kB time=00:03:55.15 bitrate= 297.2kbits/s dup=1 drop=0 speed=6.51x    frame= 5672 fps=155 q=32.0 size=    8614kB time=00:03:56.73 bitrate= 298.1kbits/s dup=1 drop=0 speed=6.46x    frame= 5723 fps=154 q=32.0 size=    8702kB time=00:03:58.82 bitrate= 298.5kbits/s dup=1 drop=0 speed=6.43x    frame= 5775 fps=153 q=32.0 size=    8768kB time=00:04:01.04 bitrate= 298.0kbits/s dup=1 drop=0 speed= 6.4x    frame= 5832 fps=153 q=32.0 size=    8848kB time=00:04:03.39 bitrate= 297.8kbits/s dup=1 drop=0 speed=6.38x    frame= 5911 fps=153 q=32.0 size=    8933kB time=00:04:06.67 bitrate= 296.7kbits/s dup=1 drop=0 speed=6.38x    frame= 5990 fps=153 q=32.0 size=    9019kB time=00:04:09.96 bitrate= 295.6kbits/s dup=1 drop=0 speed=6.38x    frame= 6047 fps=152 q=32.0 size=    9087kB time=00:04:12.35 bitrate= 295.0kbits/s dup=1 drop=0 speed=6.36x    frame= 6101 fps=152 q=32.0 size=    9153kB time=00:04:14.65 bitrate= 294.4kbits/s dup=1 drop=0 speed=6.34x    frame= 6240 fps=153 q=32.0 size=    9357kB time=00:04:20.41 bitrate= 294.3kbits/s dup=1 drop=0 speed= 6.4x    frame= 6381 fps=155 q=32.0 size=    9494kB time=00:04:26.30 bitrate= 292.1kbits/s dup=1 drop=0 speed=6.47x    frame= 6510 fps=156 q=32.0 size=    9640kB time=00:04:31.68 bitrate= 290.7kbits/s dup=1 drop=0 speed=6.52x    frame= 6658 fps=158 q=32.0 size=    9812kB time=00:04:37.82 bitrate= 289.3kbits/s dup=1 drop=0 speed=6.59x    frame= 6761 fps=158 q=32.0 size=    9968kB time=00:04:42.13 bitrate= 289.4kbits/s dup=1 drop=0 speed=6.61x    frame= 6862 fps=159 q=32.0 size=   10126kB time=00:04:46.35 bitrate= 289.7kbits/s dup=1 drop=0 speed=6.63x    frame= 6993 fps=160 q=32.0 size=   10260kB time=00:04:51.81 bitrate= 288.0kbits/s dup=1 drop=0 speed=6.68x    frame= 7127 fps=161 q=32.0 size=   10414kB time=00:04:57.40 bitrate= 286.8kbits/s dup=1 drop=0 speed=6.73x    frame= 7263 fps=163 q=32.0 size=   10569kB time=00:05:03.08 bitrate= 285.7kbits/s dup=1 drop=0 speed=6.78x    frame= 7429 fps=164 q=32.0 size=   10714kB time=00:05:09.99 bitrate= 283.1kbits/s dup=1 drop=0 speed=6.86x    frame= 7570 fps=166 q=32.0 size=   10848kB time=00:05:15.88 bitrate= 281.3kbits/s dup=1 drop=0 speed=6.91x    frame= 7709 fps=167 q=32.0 size=   10973kB time=00:05:21.68 bitrate= 279.4kbits/s dup=1 drop=0 speed=6.96x    frame= 7848 fps=168 q=32.0 size=   11106kB time=00:05:27.48 bitrate= 277.8kbits/s dup=1 drop=0 speed=7.01x    frame= 8006 fps=170 q=32.0 size=   11229kB time=00:05:34.05 bitrate= 275.4kbits/s dup=1 drop=0 speed=7.08x    frame= 8106 fps=170 q=32.0 size=   11360kB time=00:05:38.24 bitrate= 275.1kbits/s dup=1 drop=0 speed=7.09x    frame= 8242 fps=171 q=32.0 size=   11493kB time=00:05:43.91 bitrate= 273.8kbits/s dup=1 drop=0 speed=7.13x    frame= 8368 fps=172 q=32.0 size=   11639kB time=00:05:49.16 bitrate= 273.1kbits/s dup=1 drop=0 speed=7.17x    frame= 8494 fps=173 q=32.0 size=   11765kB time=00:05:54.41 bitrate= 271.9kbits/s dup=1 drop=0 speed= 7.2x    frame= 8575 fps=172 q=32.0 size=   11895kB time=00:05:57.82 bitrate= 272.3kbits/s dup=1 drop=0 speed=7.19x    frame= 8671 fps=173 q=32.0 size=   12034kB time=00:06:01.83 bitrate= 272.5kbits/s dup=1 drop=0 speed= 7.2x    frame= 8743 fps=172 q=32.0 size=   12192kB time=00:06:04.82 bitrate= 273.8kbits/s dup=1 drop=0 speed=7.19x    frame= 8903 fps=174 q=32.0 size=   12350kB time=00:06:11.47 bitrate= 272.4kbits/s dup=1 drop=0 speed=7.25x    frame= 9106 fps=176 q=32.0 size=   12487kB time=00:06:19.92 bitrate= 269.2kbits/s dup=1 drop=0 speed=7.34x    frame= 9236 fps=177 q=32.0 size=   12632kB time=00:06:25.38 bitrate= 268.5kbits/s dup=1 drop=0 speed=7.37x    frame= 9377 fps=178 q=32.0 size=   12749kB time=00:06:31.27 bitrate= 266.9kbits/s dup=1 drop=0 speed=7.41x    frame= 9492 fps=178 q=32.0 size=   12842kB time=00:06:36.05 bitrate= 265.6kbits/s dup=1 drop=0 speed=7.43x    frame= 9574 fps=178 q=32.0 size=   12992kB time=00:06:39.46 bitrate= 266.4kbits/s dup=1 drop=0 speed=7.43x    frame= 9739 fps=179 q=32.0 size=   13139kB time=00:06:46.37 bitrate= 264.9kbits/s dup=1 drop=0 speed=7.49x    frame= 9846 fps=180 q=32.0 size=   13291kB time=00:06:50.81 bitrate= 265.0kbits/s dup=1 drop=0 speed= 7.5x    frame= 9946 fps=180 q=32.0 size=   13444kB time=00:06:54.99 bitrate= 265.4kbits/s dup=1 drop=0 speed= 7.5x    frame=10049 fps=180 q=32.0 size=   13594kB time=00:06:59.26 bitrate= 265.6kbits/s dup=1 drop=0 speed=7.51x    frame=10191 fps=181 q=32.0 size=   13753kB time=00:07:05.19 bitrate= 265.0kbits/s dup=1 drop=0 speed=7.55x    frame=10363 fps=182 q=32.0 size=   13851kB time=00:07:12.36 bitrate= 262.4kbits/s dup=1 drop=0 speed=7.61x    frame=10494 fps=183 q=32.0 size=   13981kB time=00:07:17.86 bitrate= 261.6kbits/s dup=1 drop=0 speed=7.64x    frame=10606 fps=183 q=32.0 size=   14119kB time=00:07:22.51 bitrate= 261.4kbits/s dup=1 drop=0 speed=7.65x    frame=10686 fps=183 q=32.0 size=   14233kB time=00:07:25.84 bitrate= 261.5kbits/s dup=1 drop=0 speed=7.64x    frame=10785 fps=183 q=32.0 size=   14365kB time=00:07:29.94 bitrate= 261.5kbits/s dup=1 drop=0 speed=7.65x    frame=10911 fps=184 q=32.0 size=   14502kB time=00:07:35.27 bitrate= 260.9kbits/s dup=1 drop=0 speed=7.67x    frame=11038 fps=184 q=32.0 size=   14627kB time=00:07:40.52 bitrate= 260.2kbits/s dup=1 drop=0 speed=7.69x    frame=11169 fps=185 q=32.0 size=   14771kB time=00:07:46.02 bitrate= 259.7kbits/s dup=1 drop=0 speed=7.72x    frame=11249 fps=185 q=32.0 size=   14877kB time=00:07:49.35 bitrate= 259.7kbits/s dup=1 drop=0 speed=7.71x    frame=11321 fps=184 q=32.0 size=   14992kB time=00:07:52.34 bitrate= 260.0kbits/s dup=1 drop=0 speed=7.69x    frame=11409 fps=184 q=32.0 size=   15068kB time=00:07:56.01 bitrate= 259.3kbits/s dup=1 drop=0 speed=7.69x    frame=11491 fps=184 q=32.0 size=   15153kB time=00:07:59.42 bitrate= 258.9kbits/s dup=1 drop=0 speed=7.68x    frame=11531 fps=183 q=32.0 size=   15280kB time=00:08:01.08 bitrate= 260.2kbits/s dup=1 drop=0 speed=7.64x    frame=11588 fps=183 q=32.0 size=   15403kB time=00:08:03.47 bitrate= 261.0kbits/s dup=1 drop=0 speed=7.61x    frame=11628 fps=182 q=32.0 size=   15493kB time=00:08:05.14 bitrate= 261.6kbits/s dup=1 drop=0 speed=7.58x    frame=11668 fps=181 q=32.0 size=   15590kB time=00:08:06.80 bitrate= 262.3kbits/s dup=1 drop=0 speed=7.55x    frame=11728 fps=180 q=32.0 size=   15707kB time=00:08:09.32 bitrate= 263.0kbits/s dup=1 drop=0 speed=7.53x    frame=11783 fps=180 q=32.0 size=   15815kB time=00:08:11.62 bitrate= 263.5kbits/s dup=1 drop=0 speed=7.51x    frame=11834 fps=179 q=32.0 size=   15904kB time=00:08:13.71 bitrate= 263.9kbits/s dup=1 drop=0 speed=7.48x    frame=11886 fps=179 q=32.0 size=   16031kB time=00:08:15.89 bitrate= 264.8kbits/s dup=1 drop=0 speed=7.46x    frame=11956 fps=178 q=32.0 size=   16111kB time=00:08:18.79 bitrate= 264.6kbits/s dup=1 drop=0 speed=7.44x    frame=12024 fps=178 q=32.0 size=   16195kB time=00:08:21.65 bitrate= 264.5kbits/s dup=1 drop=0 speed=7.43x    frame=12083 fps=178 q=32.0 size=   16272kB time=00:08:24.12 bitrate= 264.4kbits/s dup=1 drop=0 speed=7.41x    frame=12120 fps=177 q=32.0 size=   16366kB time=00:08:25.66 bitrate= 265.1kbits/s dup=1 drop=0 speed=7.38x    frame=12151 fps=176 q=32.0 size=   16441kB time=00:08:26.94 bitrate= 265.7kbits/s dup=1 drop=0 speed=7.34x    frame=12182 fps=175 q=32.0 size=   16513kB time=00:08:28.26 bitrate= 266.1kbits/s dup=1 drop=0 speed=7.31x    frame=12219 fps=174 q=32.0 size=   16576kB time=00:08:29.80 bitrate= 266.4kbits/s dup=1 drop=0 speed=7.28x    frame=12254 fps=174 q=32.0 size=   16647kB time=00:08:31.25 bitrate= 266.7kbits/s dup=1 drop=0 speed=7.25x    frame=12288 fps=173 q=32.0 size=   16714kB time=00:08:32.66 bitrate= 267.1kbits/s dup=1 drop=0 speed=7.21x    frame=12319 fps=172 q=32.0 size=   16778kB time=00:08:33.94 bitrate= 267.4kbits/s dup=1 drop=0 speed=7.18x    frame=12359 fps=171 q=32.0 size=   16869kB time=00:08:35.64 bitrate= 268.0kbits/s dup=1 drop=0 speed=7.16x    frame=12397 fps=171 q=32.0 size=   16939kB time=00:08:37.22 bitrate= 268.3kbits/s dup=1 drop=0 speed=7.13x    frame=12439 fps=170 q=32.0 size=   16996kB time=00:08:38.97 bitrate= 268.3kbits/s dup=1 drop=0 speed= 7.1x    frame=12503 fps=170 q=32.0 size=   17072kB time=00:08:41.62 bitrate= 268.1kbits/s dup=1 drop=0 speed=7.09x    frame=12551 fps=169 q=32.0 size=   17171kB time=00:08:43.62 bitrate= 268.6kbits/s dup=1 drop=0 speed=7.05x    frame=12596 fps=168 q=32.0 size=   17246kB time=00:08:45.54 bitrate= 268.8kbits/s dup=1 drop=0 speed=7.03x    frame=12616 fps=168 q=32.0 size=   17313kB time=00:08:46.35 bitrate= 269.4kbits/s dup=1 drop=0 speed=6.99x    frame=12635 fps=167 q=32.0 size=   17399kB time=00:08:47.12 bitrate= 270.4kbits/s dup=1 drop=0 speed=6.95x    frame=12668 fps=166 q=32.0 size=   17533kB time=00:08:48.53 bitrate= 271.8kbits/s dup=1 drop=0 speed=6.93x    frame=12715 fps=166 q=32.0 size=   17616kB time=00:08:50.45 bitrate= 272.1kbits/s dup=1 drop=0 speed=6.91x    frame=12771 fps=165 q=32.0 size=   17710kB time=00:08:52.80 bitrate= 272.3kbits/s dup=1 drop=0 speed=6.89x    frame=12815 fps=165 q=32.0 size=   17794kB time=00:08:54.63 bitrate= 272.7kbits/s dup=1 drop=0 speed=6.87x    frame=12857 fps=164 q=32.0 size=   17895kB time=00:08:56.38 bitrate= 273.3kbits/s dup=1 drop=0 speed=6.85x    frame=12920 fps=164 q=32.0 size=   17965kB time=00:08:59.03 bitrate= 273.0kbits/s dup=1 drop=0 speed=6.84x    frame=12975 fps=163 q=32.0 size=   18036kB time=00:09:01.33 bitrate= 272.9kbits/s dup=1 drop=0 speed=6.82x    frame=13012 fps=163 q=32.0 size=   18117kB time=00:09:02.87 bitrate= 273.4kbits/s dup=1 drop=0 speed= 6.8x    frame=13059 fps=162 q=32.0 size=   18222kB time=00:09:04.83 bitrate= 274.0kbits/s dup=1 drop=0 speed=6.78x    frame=13121 fps=162 q=32.0 size=   18314kB time=00:09:07.39 bitrate= 274.1kbits/s dup=1 drop=0 speed=6.77x    frame=13177 fps=162 q=32.0 size=   18395kB time=00:09:09.73 bitrate= 274.1kbits/s dup=1 drop=0 speed=6.75x    frame=13250 fps=162 q=32.0 size=   18461kB time=00:09:12.81 bitrate= 273.6kbits/s dup=1 drop=0 speed=6.75x    frame=13307 fps=161 q=32.0 size=   18525kB time=00:09:15.15 bitrate= 273.4kbits/s dup=1 drop=0 speed=6.73x    frame=13346 fps=161 q=32.0 size=   18584kB time=00:09:16.77 bitrate= 273.4kbits/s dup=1 drop=0 speed=6.71x    frame=13387 fps=160 q=32.0 size=   18644kB time=00:09:18.48 bitrate= 273.5kbits/s dup=1 drop=0 speed=6.69x    frame=13430 fps=160 q=32.0 size=   18701kB time=00:09:20.32 bitrate= 273.4kbits/s dup=1 drop=0 speed=6.67x    frame=13461 fps=159 q=32.0 size=   18799kB time=00:09:21.60 bitrate= 274.2kbits/s dup=1 drop=0 speed=6.65x    frame=13490 fps=159 q=32.0 size=   18885kB time=00:09:22.79 bitrate= 274.9kbits/s dup=1 drop=0 speed=6.62x    frame=13518 fps=158 q=29.0 size=   18960kB time=00:09:23.99 bitrate= 275.4kbits/s dup=1 drop=0 speed=6.59x    frame=13568 fps=158 q=32.0 size=   19070kB time=00:09:26.08 bitrate= 276.0kbits/s dup=1 drop=0 speed=6.58x    frame=13603 fps=157 q=32.0 size=   19150kB time=00:09:27.53 bitrate= 276.4kbits/s dup=1 drop=0 speed=6.55x    frame=13643 fps=157 q=29.0 size=   19247kB time=00:09:29.19 bitrate= 277.0kbits/s dup=1 drop=0 speed=6.53x    frame=13695 fps=156 q=32.0 size=   19357kB time=00:09:31.32 bitrate= 277.5kbits/s dup=1 drop=0 speed=6.52x    frame=13740 fps=156 q=32.0 size=   19413kB time=00:09:33.24 bitrate= 277.4kbits/s dup=1 drop=0 speed= 6.5x    frame=13788 fps=156 q=32.0 size=   19523kB time=00:09:35.21 bitrate= 278.0kbits/s dup=1 drop=0 speed=6.49x    frame=13856 fps=155 q=32.0 size=   19663kB time=00:09:38.07 bitrate= 278.6kbits/s dup=1 drop=0 speed=6.49x    frame=13906 fps=155 q=32.0 size=   19821kB time=00:09:40.16 bitrate= 279.9kbits/s dup=1 drop=0 speed=6.47x    frame=13998 fps=155 q=32.0 size=   19984kB time=00:09:44.00 bitrate= 280.3kbits/s dup=1 drop=0 speed=6.48x    frame=14102 fps=156 q=32.0 size=   20163kB time=00:09:48.35 bitrate= 280.7kbits/s dup=1 drop=0 speed=6.49x    frame=14213 fps=156 q=32.0 size=   20350kB time=00:09:52.96 bitrate= 281.1kbits/s dup=1 drop=0 speed=6.51x    frame=14353 fps=157 q=32.0 size=   20482kB time=00:09:58.80 bitrate= 280.2kbits/s dup=1 drop=0 speed=6.53x    frame=14434 fps=157 q=32.0 size=   20631kB time=00:10:02.17 bitrate= 280.7kbits/s dup=1 drop=0 speed=6.53x    frame=14584 fps=157 q=32.0 size=   20781kB time=00:10:08.40 bitrate= 279.8kbits/s dup=1 drop=0 speed=6.57x    frame=14741 fps=158 q=32.0 size=   20928kB time=00:10:14.97 bitrate= 278.8kbits/s dup=1 drop=0 speed= 6.6x    frame=14886 fps=159 q=32.0 size=   21061kB time=00:10:21.03 bitrate= 277.8kbits/s dup=1 drop=0 speed=6.63x    frame=15028 fps=160 q=32.0 size=   21214kB time=00:10:26.96 bitrate= 277.2kbits/s dup=1 drop=0 speed=6.66x    frame=15182 fps=160 q=32.0 size=   21359kB time=00:10:33.36 bitrate= 276.3kbits/s dup=1 drop=0 speed=6.69x    frame=15342 fps=161 q=32.0 size=   21504kB time=00:10:40.06 bitrate= 275.2kbits/s dup=1 drop=0 speed=6.73x    frame=15521 fps=162 q=32.0 size=   21647kB time=00:10:47.53 bitrate= 273.9kbits/s dup=1 drop=0 speed=6.77x    frame=15647 fps=163 q=32.0 size=   21755kB time=00:10:52.77 bitrate= 273.0kbits/s dup=1 drop=0 speed=6.79x    frame=15763 fps=163 q=32.0 size=   21884kB time=00:10:57.64 bitrate= 272.6kbits/s dup=1 drop=0 speed= 6.8x    frame=15925 fps=164 q=32.0 size=   22012kB time=00:11:04.34 bitrate= 271.4kbits/s dup=1 drop=0 speed=6.84x    frame=16078 fps=165 q=32.0 size=   22124kB time=00:11:10.74 bitrate= 270.2kbits/s dup=1 drop=0 speed=6.87x    frame=16244 fps=165 q=32.0 size=   22282kB time=00:11:17.65 bitrate= 269.4kbits/s dup=1 drop=0 speed= 6.9x    frame=16377 fps=166 q=32.0 size=   22386kB time=00:11:23.20 bitrate= 268.4kbits/s dup=1 drop=0 speed=6.92x    frame=16454 fps=166 q=32.0 size=   22520kB time=00:11:26.44 bitrate= 268.8kbits/s dup=1 drop=0 speed=6.92x    frame=16587 fps=166 q=32.0 size=   22664kB time=00:11:31.94 bitrate= 268.3kbits/s dup=1 drop=0 speed=6.94x    frame=16718 fps=167 q=32.0 size=   22792kB time=00:11:37.45 bitrate= 267.7kbits/s dup=1 drop=0 speed=6.96x    frame=16783 fps=167 q=32.0 size=   22905kB time=00:11:40.13 bitrate= 268.0kbits/s dup=1 drop=0 speed=6.95x    frame=16863 fps=167 q=32.0 size=   23045kB time=00:11:43.46 bitrate= 268.4kbits/s dup=1 drop=0 speed=6.95x    frame=16935 fps=167 q=32.0 size=   23190kB time=00:11:46.49 bitrate= 268.9kbits/s dup=1 drop=0 speed=6.95x    frame=17000 fps=166 q=32.0 size=   23339kB time=00:11:49.18 bitrate= 269.6kbits/s dup=1 drop=0 speed=6.94x    frame=17066 fps=166 q=32.0 size=   23510kB time=00:11:51.95 bitrate= 270.5kbits/s dup=1 drop=0 speed=6.93x    frame=17143 fps=166 q=32.0 size=   23636kB time=00:11:55.15 bitrate= 270.7kbits/s dup=1 drop=0 speed=6.93x    frame=17252 fps=166 q=32.0 size=   23760kB time=00:11:59.72 bitrate= 270.4kbits/s dup=1 drop=0 speed=6.94x    frame=17346 fps=166 q=32.0 size=   23874kB time=00:12:03.60 bitrate= 270.3kbits/s dup=1 drop=0 speed=6.94x    frame=17434 fps=166 q=32.0 size=   23982kB time=00:12:07.27 bitrate= 270.1kbits/s dup=1 drop=0 speed=6.94x    frame=17515 fps=166 q=32.0 size=   24127kB time=00:12:10.68 bitrate= 270.5kbits/s dup=1 drop=0 speed=6.94x    frame=17593 fps=166 q=32.0 size=   24250kB time=00:12:13.93 bitrate= 270.7kbits/s dup=1 drop=0 speed=6.94x    frame=17666 fps=166 q=32.0 size=   24395kB time=00:12:16.96 bitrate= 271.2kbits/s dup=1 drop=0 speed=6.93x    frame=17753 fps=166 q=32.0 size=   24524kB time=00:12:20.63 bitrate= 271.3kbits/s dup=1 drop=0 speed=6.94x    frame=17833 fps=166 q=32.0 size=   24642kB time=00:12:23.95 bitrate= 271.3kbits/s dup=1 drop=0 speed=6.93x    frame=17912 fps=166 q=32.0 size=   24792kB time=00:12:27.24 bitrate= 271.8kbits/s dup=1 drop=0 speed=6.93x    frame=18010 fps=166 q=32.0 size=   24902kB time=00:12:31.33 bitrate= 271.5kbits/s dup=1 drop=0 speed=6.94x    frame=18064 fps=166 q=32.0 size=   25003kB time=00:12:33.55 bitrate= 271.8kbits/s dup=1 drop=0 speed=6.93x    frame=18121 fps=166 q=32.0 size=   25099kB time=00:12:35.94 bitrate= 272.0kbits/s dup=1 drop=0 speed=6.92x    frame=18189 fps=166 q=32.0 size=   25196kB time=00:12:38.76 bitrate= 272.0kbits/s dup=1 drop=0 speed=6.91x    frame=18250 fps=165 q=32.0 size=   25279kB time=00:12:41.32 bitrate= 272.0kbits/s dup=1 drop=0 speed= 6.9x    frame=18315 fps=165 q=32.0 size=   25361kB time=00:12:44.05 bitrate= 271.9kbits/s dup=1 drop=0 speed=6.89x    frame=18382 fps=165 q=32.0 size=   25469kB time=00:12:46.82 bitrate= 272.1kbits/s dup=1 drop=0 speed=6.89x    frame=18455 fps=165 q=32.0 size=   25536kB time=00:12:49.89 bitrate= 271.7kbits/s dup=1 drop=0 speed=6.88x    frame=18516 fps=165 q=32.0 size=   25605kB time=00:12:52.45 bitrate= 271.5kbits/s dup=1 drop=0 speed=6.87x    frame=18579 fps=165 q=32.0 size=   25730kB time=00:12:55.06 bitrate= 271.9kbits/s dup=1 drop=0 speed=6.87x    frame=18634 fps=164 q=32.0 size=   25824kB time=00:12:57.36 bitrate= 272.1kbits/s dup=1 drop=0 speed=6.86x    frame=18709 fps=164 q=32.0 size=   25900kB time=00:13:00.48 bitrate= 271.9kbits/s dup=1 drop=0 speed=6.85x    frame=18773 fps=164 q=32.0 size=   26004kB time=00:13:03.12 bitrate= 272.0kbits/s dup=1 drop=0 speed=6.85x    frame=18879 fps=164 q=32.0 size=   26071kB time=00:13:07.56 bitrate= 271.2kbits/s dup=1 drop=0 speed=6.85x    frame=18962 fps=164 q=32.0 size=   26171kB time=00:13:11.01 bitrate= 271.0kbits/s dup=1 drop=0 speed=6.85x    frame=19044 fps=164 q=32.0 size=   26261kB time=00:13:14.43 bitrate= 270.8kbits/s dup=1 drop=0 speed=6.85x    frame=19134 fps=164 q=32.0 size=   26362kB time=00:13:18.23 bitrate= 270.5kbits/s dup=1 drop=0 speed=6.86x    frame=19215 fps=164 q=32.0 size=   26436kB time=00:13:21.55 bitrate= 270.2kbits/s dup=1 drop=0 speed=6.85x    frame=19285 fps=164 q=32.0 size=   26501kB time=00:13:24.50 bitrate= 269.9kbits/s dup=1 drop=0 speed=6.85x    frame=19358 fps=164 q=32.0 size=   26573kB time=00:13:27.53 bitrate= 269.6kbits/s dup=1 drop=0 speed=6.85x    frame=19456 fps=164 q=32.0 size=   26621kB time=00:13:31.62 bitrate= 268.7kbits/s dup=1 drop=0 speed=6.85x    frame=19512 fps=164 q=32.0 size=   26744kB time=00:13:33.97 bitrate= 269.2kbits/s dup=1 drop=0 speed=6.84x    frame=19585 fps=164 q=29.0 size=   26819kB time=00:13:37.00 bitrate= 268.9kbits/s dup=1 drop=0 speed=6.84x    frame=19653 fps=164 q=32.0 size=   26898kB time=00:13:39.86 bitrate= 268.8kbits/s dup=1 drop=0 speed=6.83x    frame=19713 fps=164 q=32.0 size=   26973kB time=00:13:42.37 bitrate= 268.7kbits/s dup=1 drop=0 speed=6.83x    frame=19801 fps=164 q=32.0 size=   27031kB time=00:13:46.04 bitrate= 268.1kbits/s dup=1 drop=0 speed=6.83x    frame=19884 fps=164 q=32.0 size=   27131kB time=00:13:49.50 bitrate= 267.9kbits/s dup=1 drop=0 speed=6.83x    frame=19957 fps=164 q=32.0 size=   27226kB time=00:13:52.53 bitrate= 267.9kbits/s dup=1 drop=0 speed=6.82x    frame=20030 fps=164 q=32.0 size=   27288kB time=00:13:55.56 bitrate= 267.5kbits/s dup=1 drop=0 speed=6.82x    frame=20096 fps=163 q=32.0 size=   27378kB time=00:13:58.33 bitrate= 267.5kbits/s dup=1 drop=0 speed=6.81x    frame=20163 fps=163 q=32.0 size=   27446kB time=00:14:01.11 bitrate= 267.3kbits/s dup=1 drop=0 speed=6.81x    frame=20207 fps=163 q=32.0 size=   27522kB time=00:14:02.94 bitrate= 267.5kbits/s dup=1 drop=0 speed=6.79x    frame=20264 fps=163 q=32.0 size=   27601kB time=00:14:05.29 bitrate= 267.5kbits/s dup=1 drop=0 speed=6.79x    frame=20314 fps=162 q=32.0 size=   27675kB time=00:14:07.42 bitrate= 267.5kbits/s dup=1 drop=0 speed=6.77x    frame=20363 fps=162 q=32.0 size=   27748kB time=00:14:09.47 bitrate= 267.6kbits/s dup=1 drop=0 speed=6.76x    frame=20421 fps=162 q=32.0 size=   27822kB time=00:14:11.86 bitrate= 267.6kbits/s dup=1 drop=0 speed=6.75x    frame=20472 fps=162 q=32.0 size=   27900kB time=00:14:13.99 bitrate= 267.6kbits/s dup=1 drop=0 speed=6.74x    frame=20548 fps=162 q=32.0 size=   27966kB time=00:14:17.19 bitrate= 267.3kbits/s dup=1 drop=0 speed=6.74x    frame=20642 fps=162 q=32.0 size=   28030kB time=00:14:21.07 bitrate= 266.7kbits/s dup=1 drop=0 speed=6.74x    frame=20706 fps=162 q=32.0 size=   28103kB time=00:14:23.76 bitrate= 266.5kbits/s dup=1 drop=0 speed=6.74x    frame=20749 fps=161 q=32.0 size=   28180kB time=00:14:25.60 bitrate= 266.7kbits/s dup=1 drop=0 speed=6.73x    frame=20799 fps=161 q=32.0 size=   28262kB time=00:14:27.64 bitrate= 266.8kbits/s dup=1 drop=0 speed=6.72x    frame=20875 fps=161 q=32.0 size=   28352kB time=00:14:30.80 bitrate= 266.7kbits/s dup=1 drop=0 speed=6.71x    frame=20959 fps=161 q=32.0 size=   28403kB time=00:14:34.30 bitrate= 266.1kbits/s dup=1 drop=0 speed=6.71x    frame=21018 fps=161 q=32.0 size=   28518kB time=00:14:36.77 bitrate= 266.4kbits/s dup=1 drop=0 speed=6.71x    frame=21071 fps=161 q=32.0 size=   28586kB time=00:14:38.99 bitrate= 266.4kbits/s dup=1 drop=0 speed= 6.7x    frame=21142 fps=160 q=32.0 size=   28663kB time=00:14:41.94 bitrate= 266.2kbits/s dup=1 drop=0 speed= 6.7x    frame=21216 fps=160 q=32.0 size=   28749kB time=00:14:45.05 bitrate= 266.1kbits/s dup=1 drop=0 speed=6.69x    frame=21303 fps=161 q=32.0 size=   28882kB time=00:14:48.68 bitrate= 266.2kbits/s dup=1 drop=0 speed= 6.7x    frame=21432 fps=161 q=32.0 size=   29046kB time=00:14:54.05 bitrate= 266.1kbits/s dup=1 drop=0 speed=6.71x    frame=21523 fps=161 q=32.0 size=   29181kB time=00:14:57.81 bitrate= 266.3kbits/s dup=1 drop=0 speed=6.71x    frame=21611 fps=161 q=32.0 size=   29368kB time=00:15:01.52 bitrate= 266.9kbits/s dup=1 drop=0 speed=6.72x    frame=21738 fps=161 q=32.0 size=   29535kB time=00:15:06.81 bitrate= 266.8kbits/s dup=1 drop=0 speed=6.73x    frame=21842 fps=162 q=29.0 size=   29685kB time=00:15:11.16 bitrate= 266.9kbits/s dup=1 drop=0 speed=6.74x    frame=21951 fps=162 q=32.0 size=   29855kB time=00:15:15.69 bitrate= 267.1kbits/s dup=1 drop=0 speed=6.75x    frame=22060 fps=162 q=32.0 size=   29983kB time=00:15:20.25 bitrate= 266.9kbits/s dup=1 drop=0 speed=6.75x    frame=22123 fps=162 q=32.0 size=   30105kB time=00:15:22.85 bitrate= 267.2kbits/s dup=1 drop=0 speed=6.75x    frame=22236 fps=162 q=32.0 size=   30223kB time=00:15:27.59 bitrate= 266.9kbits/s dup=1 drop=0 speed=6.76x    frame=22351 fps=162 q=32.0 size=   30397kB time=00:15:32.41 bitrate= 267.1kbits/s dup=1 drop=0 speed=6.77x    frame=22542 fps=163 q=32.0 size=   30542kB time=00:15:40.35 bitrate= 266.1kbits/s dup=1 drop=0 speed= 6.8x    frame=22709 fps=164 q=32.0 size=   30668kB time=00:15:47.30 bitrate= 265.2kbits/s dup=1 drop=0 speed=6.83x    frame=22870 fps=164 q=32.0 size=   30823kB time=00:15:54.00 bitrate= 264.7kbits/s dup=1 drop=0 speed=6.85x    frame=23026 fps=165 q=32.0 size=   30952kB time=00:16:00.53 bitrate= 264.0kbits/s dup=1 drop=0 speed=6.87x    frame=23118 fps=165 q=32.0 size=   31076kB time=00:16:04.37 bitrate= 264.0kbits/s dup=1 drop=0 speed=6.87x    frame=23282 fps=165 q=32.0 size=   31210kB time=00:16:11.20 bitrate= 263.3kbits/s dup=1 drop=0 speed= 6.9x    frame=23439 fps=166 q=32.0 size=   31363kB time=00:16:17.77 bitrate= 262.8kbits/s dup=1 drop=0 speed=6.92x    frame=23585 fps=166 q=32.0 size=   31493kB time=00:16:23.83 bitrate= 262.2kbits/s dup=1 drop=0 speed=6.94x    frame=23706 fps=167 q=32.0 size=   31609kB time=00:16:28.90 bitrate= 261.8kbits/s dup=1 drop=0 speed=6.95x    frame=23850 fps=167 q=32.0 size=   31742kB time=00:16:34.88 bitrate= 261.4kbits/s dup=1 drop=0 speed=6.97x    frame=23984 fps=167 q=32.0 size=   31853kB time=00:16:40.47 bitrate= 260.8kbits/s dup=1 drop=0 speed=6.98x    frame=24087 fps=167 q=32.0 size=   31990kB time=00:16:44.77 bitrate= 260.8kbits/s dup=1 drop=0 speed=6.99x    frame=24232 fps=168 q=32.0 size=   32126kB time=00:16:50.83 bitrate= 260.4kbits/s dup=1 drop=0 speed=   7x    frame=24385 fps=168 q=32.0 size=   32258kB time=00:16:57.19 bitrate= 259.8kbits/s dup=1 drop=0 speed=7.02x    frame=24537 fps=169 q=32.0 size=   32383kB time=00:17:03.59 bitrate= 259.2kbits/s dup=1 drop=0 speed=7.04x    frame=24677 fps=169 q=32.0 size=   32503kB time=00:17:09.39 bitrate= 258.7kbits/s dup=1 drop=0 speed=7.06x    frame=24780 fps=169 q=32.0 size=   32634kB time=00:17:13.66 bitrate= 258.6kbits/s dup=1 drop=0 speed=7.06x    frame=24888 fps=170 q=32.0 size=   32782kB time=00:17:18.18 bitrate= 258.7kbits/s dup=1 drop=0 speed=7.07x    frame=25033 fps=170 q=32.0 size=   32906kB time=00:17:24.24 bitrate= 258.1kbits/s dup=1 drop=0 speed=7.09x    frame=25174 fps=170 q=32.0 size=   33039kB time=00:17:30.13 bitrate= 257.7kbits/s dup=1 drop=0 speed= 7.1x    frame=25315 fps=171 q=32.0 size=   33158kB time=00:17:35.97 bitrate= 257.2kbits/s dup=1 drop=0 speed=7.12x    frame=25396 fps=171 q=32.0 size=   33287kB time=00:17:39.39 bitrate= 257.4kbits/s dup=1 drop=0 speed=7.12x    frame=25534 fps=171 q=32.0 size=   33395kB time=00:17:45.15 bitrate= 256.8kbits/s dup=1 drop=0 speed=7.13x    frame=25679 fps=171 q=32.0 size=   33537kB time=00:17:51.16 bitrate= 256.5kbits/s dup=1 drop=0 speed=7.15x    frame=25782 fps=171 q=32.0 size=   33639kB time=00:17:55.47 bitrate= 256.2kbits/s dup=1 drop=0 speed=7.15x    frame=25885 fps=172 q=32.0 size=   33753kB time=00:17:59.74 bitrate= 256.1kbits/s dup=1 drop=0 speed=7.16x    frame=26005 fps=172 q=32.0 size=   33868kB time=00:18:04.77 bitrate= 255.8kbits/s dup=1 drop=0 speed=7.16x    frame=26126 fps=172 q=32.0 size=   34006kB time=00:18:09.85 bitrate= 255.6kbits/s dup=1 drop=0 speed=7.17x    frame=26261 fps=172 q=32.0 size=   34179kB time=00:18:15.44 bitrate= 255.6kbits/s dup=1 drop=0 speed=7.18x    frame=26362 fps=172 q=32.0 size=   34247kB time=00:18:19.67 bitrate= 255.1kbits/s dup=1 drop=0 speed=7.19x    frame=26423 fps=172 q=32.0 size=   34333kB time=00:18:22.23 bitrate= 255.2kbits/s dup=1 drop=0 speed=7.18x    frame=26510 fps=172 q=32.0 size=   34434kB time=00:18:25.85 bitrate= 255.1kbits/s dup=1 drop=0 speed=7.18x    frame=26593 fps=172 q=32.0 size=   34511kB time=00:18:29.31 bitrate= 254.9kbits/s dup=1 drop=0 speed=7.18x    frame=26674 fps=172 q=32.0 size=   34605kB time=00:18:32.68 bitrate= 254.8kbits/s dup=1 drop=0 speed=7.18x    frame=26756 fps=172 q=32.0 size=   34679kB time=00:18:36.13 bitrate= 254.5kbits/s dup=1 drop=0 speed=7.18x    frame=26818 fps=172 q=32.0 size=   34756kB time=00:18:38.69 bitrate= 254.5kbits/s dup=1 drop=0 speed=7.17x    frame=26885 fps=172 q=32.0 size=   34829kB time=00:18:41.51 bitrate= 254.4kbits/s dup=1 drop=0 speed=7.17x    frame=26981 fps=172 q=32.0 size=   34928kB time=00:18:45.48 bitrate= 254.2kbits/s dup=1 drop=0 speed=7.17x    frame=27081 fps=172 q=32.0 size=   35015kB time=00:18:49.66 bitrate= 253.9kbits/s dup=1 drop=0 speed=7.17x    frame=27184 fps=172 q=32.0 size=   35110kB time=00:18:53.97 bitrate= 253.6kbits/s dup=1 drop=0 speed=7.18x    frame=27287 fps=172 q=32.0 size=   35186kB time=00:18:58.24 bitrate= 253.2kbits/s dup=1 drop=0 speed=7.18x    frame=27372 fps=172 q=32.0 size=   35268kB time=00:19:01.78 bitrate= 253.0kbits/s dup=1 drop=0 speed=7.18x    frame=27472 fps=172 q=32.0 size=   35372kB time=00:19:05.96 bitrate= 252.9kbits/s dup=1 drop=0 speed=7.18x    frame=27541 fps=172 q=32.0 size=   35488kB time=00:19:08.86 bitrate= 253.0kbits/s dup=1 drop=0 speed=7.17x    frame=27601 fps=172 q=32.0 size=   35565kB time=00:19:11.33 bitrate= 253.0kbits/s dup=1 drop=0 speed=7.17x    frame=27659 fps=172 q=32.0 size=   35635kB time=00:19:13.77 bitrate= 253.0kbits/s dup=1 drop=0 speed=7.16x    frame=27726 fps=171 q=29.0 size=   35699kB time=00:19:16.54 bitrate= 252.9kbits/s dup=1 drop=0 speed=7.15x    frame=27813 fps=172 q=32.0 size=   35780kB time=00:19:20.17 bitrate= 252.6kbits/s dup=1 drop=0 speed=7.15x    frame=27862 fps=171 q=32.0 size=   35865kB time=00:19:22.26 bitrate= 252.8kbits/s dup=1 drop=0 speed=7.14x    frame=27943 fps=171 q=32.0 size=   35929kB time=00:19:25.59 bitrate= 252.5kbits/s dup=1 drop=0 speed=7.14x    frame=28004 fps=171 q=32.0 size=   36021kB time=00:19:28.19 bitrate= 252.6kbits/s dup=1 drop=0 speed=7.14x    frame=28071 fps=171 q=32.0 size=   36079kB time=00:19:30.96 bitrate= 252.4kbits/s dup=1 drop=0 speed=7.13x    frame=28134 fps=171 q=32.0 size=   36161kB time=00:19:33.56 bitrate= 252.4kbits/s dup=1 drop=0 speed=7.13x    frame=28178 fps=171 q=32.0 size=   36229kB time=00:19:35.40 bitrate= 252.5kbits/s dup=1 drop=0 speed=7.11x    frame=28251 fps=170 q=32.0 size=   36329kB time=00:19:38.47 bitrate= 252.5kbits/s dup=1 drop=0 speed=7.11x    frame=28336 fps=170 q=32.0 size=   36398kB time=00:19:42.01 bitrate= 252.3kbits/s dup=1 drop=0 speed=7.11x    frame=28395 fps=170 q=32.0 size=   36462kB time=00:19:44.49 bitrate= 252.2kbits/s dup=1 drop=0 speed= 7.1x    frame=28456 fps=170 q=32.0 size=   36505kB time=00:19:47.00 bitrate= 251.9kbits/s dup=1 drop=0 speed= 7.1x    frame=28505 fps=170 q=32.0 size=   36580kB time=00:19:49.05 bitrate= 252.0kbits/s dup=1 drop=0 speed=7.09x    frame=28562 fps=170 q=32.0 size=   36632kB time=00:19:51.44 bitrate= 251.9kbits/s dup=1 drop=0 speed=7.08x    frame=28632 fps=170 q=32.0 size=   36700kB time=00:19:54.34 bitrate= 251.7kbits/s dup=1 drop=0 speed=7.08x    frame=28668 fps=169 q=32.0 size=   36761kB time=00:19:55.84 bitrate= 251.8kbits/s dup=1 drop=0 speed=7.06x    frame=28711 fps=169 q=32.0 size=   36847kB time=00:19:57.63 bitrate= 252.0kbits/s dup=1 drop=0 speed=7.05x    frame=28793 fps=169 q=32.0 size=   36912kB time=00:20:01.08 bitrate= 251.8kbits/s dup=1 drop=0 speed=7.05x    frame=28870 fps=169 q=32.0 size=   37006kB time=00:20:04.28 bitrate= 251.7kbits/s dup=1 drop=0 speed=7.05x    frame=28966 fps=169 q=32.0 size=   37062kB time=00:20:08.29 bitrate= 251.3kbits/s dup=1 drop=0 speed=7.05x    frame=29044 fps=169 q=32.0 size=   37138kB time=00:20:11.54 bitrate= 251.1kbits/s dup=1 drop=0 speed=7.05x    frame=29107 fps=169 q=32.0 size=   37217kB time=00:20:14.14 bitrate= 251.1kbits/s dup=1 drop=0 speed=7.05x    frame=29229 fps=169 q=32.0 size=   37343kB time=00:20:19.26 bitrate= 250.9kbits/s dup=1 drop=0 speed=7.06x    frame=29347 fps=169 q=32.0 size=   37479kB time=00:20:24.17 bitrate= 250.8kbits/s dup=1 drop=0 speed=7.06x    frame=29487 fps=170 q=32.0 size=   37629kB time=00:20:30.01 bitrate= 250.6kbits/s dup=1 drop=0 speed=7.08x    frame=29613 fps=170 q=32.0 size=   37771kB time=00:20:35.26 bitrate= 250.5kbits/s dup=1 drop=0 speed=7.09x    frame=29718 fps=170 q=32.0 size=   37867kB time=00:20:39.65 bitrate= 250.2kbits/s dup=1 drop=0 speed=7.09x    frame=29816 fps=170 q=32.0 size=   37970kB time=00:20:43.71 bitrate= 250.1kbits/s dup=1 drop=0 speed=7.09x    frame=29924 fps=170 q=32.0 size=   38126kB time=00:20:48.23 bitrate= 250.2kbits/s dup=1 drop=0 speed= 7.1x    frame=30009 fps=170 q=32.0 size=   38307kB time=00:20:51.77 bitrate= 250.7kbits/s dup=1 drop=0 speed= 7.1x    frame=30067 fps=170 q=32.0 size=   38456kB time=00:20:54.20 bitrate= 251.2kbits/s dup=1 drop=0 speed=7.09x    frame=30130 fps=170 q=32.0 size=   38615kB time=00:20:56.81 bitrate= 251.7kbits/s dup=1 drop=0 speed=7.09x    frame=30197 fps=170 q=32.0 size=   38771kB time=00:20:59.62 bitrate= 252.1kbits/s dup=1 drop=0 speed=7.08x    frame=30264 fps=170 q=32.0 size=   38935kB time=00:21:02.44 bitrate= 252.7kbits/s dup=1 drop=0 speed=7.08x    frame=30310 fps=169 q=32.0 size=   39069kB time=00:21:04.36 bitrate= 253.1kbits/s dup=1 drop=0 speed=7.07x    frame=30353 fps=169 q=32.0 size=   39228kB time=00:21:06.15 bitrate= 253.8kbits/s dup=1 drop=0 speed=7.06x    frame=30427 fps=169 q=32.0 size=   39388kB time=00:21:09.22 bitrate= 254.2kbits/s dup=1 drop=0 speed=7.06x    frame=30507 fps=169 q=32.0 size=   39518kB time=00:21:12.55 bitrate= 254.4kbits/s dup=1 drop=0 speed=7.06x    frame=30567 fps=169 q=32.0 size=   39681kB time=00:21:15.03 bitrate= 254.9kbits/s dup=1 drop=0 speed=7.05x    frame=30651 fps=169 q=32.0 size=   39844kB time=00:21:18.57 bitrate= 255.3kbits/s dup=1 drop=0 speed=7.05x    frame=30723 fps=169 q=32.0 size=   39991kB time=00:21:21.55 bitrate= 255.6kbits/s dup=1 drop=0 speed=7.04x    frame=30777 fps=169 q=32.0 size=   40150kB time=00:21:23.81 bitrate= 256.2kbits/s dup=1 drop=0 speed=7.04x    frame=30846 fps=169 q=32.0 size=   40322kB time=00:21:26.67 bitrate= 256.7kbits/s dup=1 drop=0 speed=7.03x    frame=30921 fps=169 q=32.0 size=   40494kB time=00:21:29.83 bitrate= 257.2kbits/s dup=1 drop=0 speed=7.03x    frame=30999 fps=169 q=32.0 size=   40661kB time=00:21:33.07 bitrate= 257.6kbits/s dup=1 drop=0 speed=7.03x    frame=31102 fps=169 q=32.0 size=   40788kB time=00:21:37.34 bitrate= 257.5kbits/s dup=1 drop=0 speed=7.03x    frame=31172 fps=169 q=32.0 size=   40991kB time=00:21:40.28 bitrate= 258.2kbits/s dup=1 drop=0 speed=7.03x    frame=31256 fps=169 q=32.0 size=   41124kB time=00:21:43.78 bitrate= 258.4kbits/s dup=1 drop=0 speed=7.03x    frame=31321 fps=168 q=32.0 size=   41307kB time=00:21:46.51 bitrate= 259.0kbits/s dup=1 drop=0 speed=7.03x    frame=31388 fps=168 q=32.0 size=   41472kB time=00:21:49.29 bitrate= 259.5kbits/s dup=1 drop=0 speed=7.02x    frame=31461 fps=168 q=32.0 size=   41607kB time=00:21:52.36 bitrate= 259.7kbits/s dup=1 drop=0 speed=7.02x    frame=31522 fps=168 q=32.0 size=   41785kB time=00:21:54.88 bitrate= 260.3kbits/s dup=1 drop=0 speed=7.01x    frame=31604 fps=168 q=32.0 size=   41939kB time=00:21:58.29 bitrate= 260.6kbits/s dup=1 drop=0 speed=7.01x    frame=31690 fps=168 q=32.0 size=   42070kB time=00:22:01.87 bitrate= 260.7kbits/s dup=1 drop=0 speed=7.01x    frame=31775 fps=168 q=32.0 size=   42205kB time=00:22:05.46 bitrate= 260.8kbits/s dup=1 drop=0 speed=7.01x    frame=31852 fps=168 q=32.0 size=   42336kB time=00:22:08.66 bitrate= 261.0kbits/s dup=1 drop=0 speed=7.01x    frame=31984 fps=168 q=32.0 size=   42474kB time=00:22:14.16 bitrate= 260.8kbits/s dup=1 drop=0 speed=7.02x    frame=32154 fps=169 q=32.0 size=   42602kB time=00:22:21.24 bitrate= 260.2kbits/s dup=1 drop=0 speed=7.04x    frame=32289 fps=169 q=32.0 size=   42704kB time=00:22:26.92 bitrate= 259.7kbits/s dup=1 drop=0 speed=7.05x    frame=32389 fps=169 q=32.0 size=   42832kB time=00:22:31.06 bitrate= 259.7kbits/s dup=1 drop=0 speed=7.05x    frame=32452 fps=169 q=32.0 size=   42963kB time=00:22:33.66 bitrate= 260.0kbits/s dup=1 drop=0 speed=7.05x    frame=32514 fps=169 q=32.0 size=   43129kB time=00:22:36.26 bitrate= 260.5kbits/s dup=1 drop=0 speed=7.04x    frame=32569 fps=169 q=32.0 size=   43271kB time=00:22:38.57 bitrate= 260.9kbits/s dup=1 drop=0 speed=7.04x    frame=32603 fps=168 q=32.0 size=   43321kB time=00:22:39.97 bitrate= 260.9kbits/s dup=1 drop=0 speed=7.01x    frame=32683 fps=168 q=32.0 size=   43444kB time=00:22:43.30 bitrate= 261.1kbits/s dup=1 drop=0 speed=7.01x    frame=32759 fps=168 q=32.0 size=   43548kB time=00:22:46.46 bitrate= 261.1kbits/s dup=1 drop=0 speed=7.01x    frame=32824 fps=168 q=32.0 size=   43637kB time=00:22:49.19 bitrate= 261.1kbits/s dup=1 drop=0 speed=7.01x    frame=32868 fps=168 q=32.0 size=   43734kB time=00:22:51.03 bitrate= 261.3kbits/s dup=1 drop=0 speed=   7x    frame=32923 fps=168 q=32.0 size=   43840kB time=00:22:53.33 bitrate= 261.5kbits/s dup=1 drop=0 speed=6.99x    frame=32966 fps=167 q=32.0 size=   43953kB time=00:22:55.12 bitrate= 261.8kbits/s dup=1 drop=0 speed=6.98x    frame=33022 fps=167 q=32.0 size=   44083kB time=00:22:57.47 bitrate= 262.2kbits/s dup=1 drop=0 speed=6.98x    frame=33120 fps=167 q=32.0 size=   44176kB time=00:23:01.52 bitrate= 261.9kbits/s dup=1 drop=0 speed=6.98x    frame=33211 fps=167 q=32.0 size=   44268kB time=00:23:05.32 bitrate= 261.8kbits/s dup=1 drop=0 speed=6.98x    frame=33261 fps=167 q=32.0 size=   44366kB time=00:23:07.45 bitrate= 261.9kbits/s dup=1 drop=0 speed=6.97x    frame=33318 fps=167 q=32.0 size=   44441kB time=00:23:09.80 bitrate= 262.0kbits/s dup=1 drop=0 speed=6.97x    frame=33362 fps=167 q=32.0 size=   44532kB time=00:23:11.63 bitrate= 262.1kbits/s dup=1 drop=0 speed=6.96x    frame=33448 fps=167 q=32.0 size=   44631kB time=00:23:15.22 bitrate= 262.0kbits/s dup=1 drop=0 speed=6.96x    frame=33520 fps=167 q=32.0 size=   44691kB time=00:23:18.20 bitrate= 261.8kbits/s dup=1 drop=0 speed=6.95x    frame=33544 fps=166 q=32.0 size=   44775kB time=00:23:19.23 bitrate= 262.1kbits/s dup=1 drop=0 speed=6.94x    frame=33584 fps=166 q=32.0 size=   44824kB time=00:23:20.89 bitrate= 262.1kbits/s dup=1 drop=0 speed=6.93x    frame=33626 fps=166 q=32.0 size=   44873kB time=00:23:22.64 bitrate= 262.1kbits/s dup=1 drop=0 speed=6.92x    frame=33675 fps=166 q=32.0 size=   44946kB time=00:23:24.69 bitrate= 262.1kbits/s dup=1 drop=0 speed=6.92x    frame=33733 fps=166 q=32.0 size=   45007kB time=00:23:27.12 bitrate= 262.0kbits/s dup=1 drop=0 speed=6.91x    frame=33790 fps=166 q=32.0 size=   45061kB time=00:23:29.51 bitrate= 261.9kbits/s dup=1 drop=0 speed= 6.9x    frame=33855 fps=165 q=32.0 size=   45127kB time=00:23:32.20 bitrate= 261.8kbits/s dup=1 drop=0 speed= 6.9x    frame=33899 fps=165 q=32.0 size=   45208kB time=00:23:34.03 bitrate= 261.9kbits/s dup=1 drop=0 speed=6.89x    frame=33953 fps=165 q=32.0 size=   45268kB time=00:23:36.29 bitrate= 261.8kbits/s dup=1 drop=0 speed=6.89x    frame=33985 fps=165 q=32.0 size=   45338kB time=00:23:37.62 bitrate= 262.0kbits/s dup=1 drop=0 speed=6.88x    frame=34022 fps=165 q=32.0 size=   45384kB time=00:23:39.15 bitrate= 262.0kbits/s dup=1 drop=0 speed=6.87x    frame=34071 fps=164 q=32.0 size=   45435kB time=00:23:41.20 bitrate= 261.9kbits/s dup=1 drop=0 speed=6.86x    frame=34129 fps=164 q=32.0 size=   45505kB time=00:23:43.63 bitrate= 261.8kbits/s dup=1 drop=0 speed=6.85x    frame=34192 fps=164 q=32.0 size=   45558kB time=00:23:46.24 bitrate= 261.7kbits/s dup=1 drop=0 speed=6.85x    frame=34254 fps=164 q=32.0 size=   45607kB time=00:23:48.84 bitrate= 261.5kbits/s dup=1 drop=0 speed=6.85x    frame=34297 fps=164 q=32.0 size=   45662kB time=00:23:50.63 bitrate= 261.5kbits/s dup=1 drop=0 speed=6.84x    frame=34320 fps=164 q=32.0 size=   45748kB time=00:23:51.61 bitrate= 261.8kbits/s dup=1 drop=0 speed=6.82x    frame=34345 fps=163 q=32.0 size=   45863kB time=00:23:52.64 bitrate= 262.2kbits/s dup=1 drop=0 speed=6.81x    frame=34422 fps=163 q=32.0 size=   45978kB time=00:23:55.84 bitrate= 262.3kbits/s dup=1 drop=0 speed=6.81x    frame=34500 fps=163 q=32.0 size=   46071kB time=00:23:59.08 bitrate= 262.3kbits/s dup=1 drop=0 speed=6.81x    frame=34555 fps=163 q=32.0 size=   46167kB time=00:24:01.38 bitrate= 262.4kbits/s dup=1 drop=0 speed= 6.8x    frame=34592 fps=163 q=32.0 size=   46235kB time=00:24:02.92 bitrate= 262.5kbits/s dup=1 drop=0 speed=6.79x    frame=34637 fps=163 q=32.0 size=   46305kB time=00:24:04.84 bitrate= 262.5kbits/s dup=1 drop=0 speed=6.79x    frame=34685 fps=163 q=32.0 size=   46386kB time=00:24:06.80 bitrate= 262.6kbits/s dup=1 drop=0 speed=6.78x    frame=34727 fps=162 q=32.0 size=   46439kB time=00:24:08.55 bitrate= 262.6kbits/s dup=1 drop=0 speed=6.77x    frame=34759 fps=162 q=32.0 size=   46500kB time=00:24:09.92 bitrate= 262.7kbits/s dup=1 drop=0 speed=6.76x    frame=34794 fps=162 q=32.0 size=   46613kB time=00:24:11.37 bitrate= 263.1kbits/s dup=1 drop=0 speed=6.75x    frame=34837 fps=162 q=32.0 size=   46688kB time=00:24:13.16 bitrate= 263.2kbits/s dup=1 drop=0 speed=6.74x    frame=34912 fps=162 q=32.0 size=   46794kB time=00:24:16.27 bitrate= 263.2kbits/s dup=1 drop=0 speed=6.74x    frame=35004 fps=162 q=32.0 size=   46850kB time=00:24:20.11 bitrate= 262.9kbits/s dup=1 drop=0 speed=6.74x    frame=35070 fps=162 q=32.0 size=   46964kB time=00:24:22.89 bitrate= 263.0kbits/s dup=1 drop=0 speed=6.74x    frame=35140 fps=161 q=32.0 size=   47055kB time=00:24:25.79 bitrate= 263.0kbits/s dup=1 drop=0 speed=6.73x    [mp4 @ 0x2d10f20] Starting second pass: moving the moov atom to the beginning of the file
frame=35170 fps=161 q=-1.0 Lsize=   47957kB time=00:24:26.85 bitrate= 267.8kbits/s dup=1 drop=0 speed=6.72x    
video:37497kB audio:9626kB subtitle:0kB other streams:0kB global headers:0kB muxing overhead: 1.769084%
[libx264 @ 0x2db17e0] frame I:312   Avg QP:21.18  size: 13949
[libx264 @ 0x2db17e0] frame P:10354 Avg QP:23.99  size:  2511
[libx264 @ 0x2db17e0] frame B:24504 Avg QP:27.90  size:   328
[libx264 @ 0x2db17e0] consecutive B-frames:  3.4%  5.5% 16.7% 74.4%
[libx264 @ 0x2db17e0] mb I  I16..4: 32.4% 49.0% 18.6%
[libx264 @ 0x2db17e0] mb P  I16..4:  5.9%  6.1%  1.4%  P16..4: 28.6%  4.7%  3.7%  0.1%  0.0%    skip:49.5%
[libx264 @ 0x2db17e0] mb B  I16..4:  0.3%  0.4%  0.1%  B16..8: 12.9%  0.7%  0.1%  direct: 0.5%  skip:85.1%  L0:42.5% L1:55.8% BI: 1.7%
[libx264 @ 0x2db17e0] 8x8 transform intra:46.1% inter:65.7%
[libx264 @ 0x2db17e0] coded y,uvDC,uvAC intra: 27.1% 49.4% 8.1% inter: 1.5% 3.4% 0.0%
[libx264 @ 0x2db17e0] i16 v,h,dc,p: 47% 30% 15%  8%
[libx264 @ 0x2db17e0] i8 v,h,dc,ddl,ddr,vr,hd,vl,hu: 25% 17% 40%  3%  2%  3%  3%  3%  3%
[libx264 @ 0x2db17e0] i4 v,h,dc,ddl,ddr,vr,hd,vl,hu: 32% 18% 22%  5%  5%  5%  5%  5%  4%
[libx264 @ 0x2db17e0] i8c dc,h,v,p: 47% 25% 24%  5%
[libx264 @ 0x2db17e0] Weighted P-Frames: Y:2.4% UV:2.0%
[libx264 @ 0x2db17e0] ref P L0: 63.6%  8.7% 12.4%  4.4%  3.2%  2.8%  2.7%  1.6%  0.5%  0.0%
[libx264 @ 0x2db17e0] ref B L0: 80.4%  9.5%  4.9%  1.8%  1.4%  1.3%  0.8%
[libx264 @ 0x2db17e0] ref B L1: 93.7%  6.3%
[libx264 @ 0x2db17e0] kb/s:209.40
